<svg width="52" height="35" viewBox="0 0 52 35" fill="none" xmlns="http://www.w3.org/2000/svg">
<path d="M16.272 25.7604C16.8 26.0484 17.064 26.5164 17.064 27.1644C17.064 27.7164 16.86 28.2204 16.452 28.6764C16.068 29.1324 15.672 29.3604 15.264 29.3604C15.024 29.3604 14.748 29.2884 14.436 29.1444C14.124 28.9764 13.8 28.7964 13.464 28.6044L1.764 21.7284C1.476 21.5604 1.26 21.3324 1.116 21.0444C0.972 20.7324 0.9 20.4084 0.9 20.0724C0.9 19.7124 0.972 19.3884 1.116 19.1004C1.26 18.8124 1.476 18.5844 1.764 18.4164L13.464 11.6844C14.16 11.2764 14.712 11.0724 15.12 11.0724C15.6 11.0724 16.044 11.3124 16.452 11.7924C16.884 12.2484 17.1 12.7284 17.1 13.2324C17.1 13.7844 16.836 14.2164 16.308 14.5284L6.732 20.0724L16.272 25.7604ZM50.751 18.7044C51.039 18.8724 51.255 19.1124 51.399 19.4244C51.543 19.7124 51.615 20.0244 51.615 20.3604C51.615 20.7204 51.543 21.0444 51.399 21.3324C51.255 21.6204 51.039 21.8484 50.751 22.0164L39.051 28.7484C38.355 29.1564 37.803 29.3604 37.395 29.3604C36.915 29.3604 36.459 29.1324 36.027 28.6764C35.619 28.1964 35.415 27.7044 35.415 27.2004C35.415 26.6484 35.679 26.2164 36.207 25.9044L45.783 20.3604L36.243 14.6724C35.715 14.3844 35.451 13.9164 35.451 13.2684C35.451 12.7164 35.643 12.2124 36.027 11.7564C36.435 11.3004 36.843 11.0724 37.251 11.0724C37.491 11.0724 37.767 11.1564 38.079 11.3243C38.391 11.4684 38.715 11.6364 39.051 11.8284L50.751 18.7044Z" fill="#fff"/>
<path d="M19.0581 34.1844C18.6021 34.1844 18.1701 34.0044 17.7621 33.6444C17.3541 33.3084 17.1501 32.8884 17.1501 32.3844C17.1501 32.0964 17.2221 31.8084 17.3661 31.5204L31.9821 1.60435C32.1501 1.26835 32.3661 1.00435 32.6301 0.81235C32.9181 0.62035 33.2301 0.524349 33.5661 0.524349C34.0221 0.524349 34.4421 0.70435 34.8261 1.06435C35.2341 1.40035 35.4381 1.82035 35.4381 2.32435C35.4381 2.61235 35.3661 2.90035 35.2221 3.18835L20.6421 33.1044C20.4741 33.4404 20.2461 33.7044 19.9581 33.8964C19.6941 34.0884 19.3941 34.1844 19.0581 34.1844Z" fill="#F06292"/>
</svg>
