<svg width="41" height="40" viewBox="0 0 41 40" fill="none" xmlns="http://www.w3.org/2000/svg">
<g clip-path="url(#clip0)">
<path d="M40.2058 18.7835C40.2053 18.7831 40.2049 18.7825 40.2044 18.7821L32.04 10.8229C31.4284 10.2267 30.4391 10.2289 29.8302 10.8281C29.2215 11.4273 29.2238 12.3964 29.8355 12.9927L35.317 18.3364H2.22656C1.36359 18.3364 0.664062 19.0216 0.664062 19.867C0.664062 20.7123 1.36359 21.3976 2.22656 21.3976H35.317L29.8355 26.7413C29.2239 27.3376 29.2216 28.3067 29.8303 28.9059C30.4391 29.5052 31.4285 29.5072 32.0401 28.9111L40.2045 20.9519C40.2049 20.9514 40.2053 20.9509 40.2059 20.9504C40.8178 20.3521 40.8159 19.3799 40.2058 18.7835Z" fill="#815DF5"/>
</g>
<defs>
<clipPath id="clip0">
<rect width="40" height="39.1837" fill="white" transform="translate(0.664062 0.275146)"/>
</clipPath>
</defs>
</svg>
