<svg width="40" height="40" viewBox="0 0 40 40" fill="none" xmlns="http://www.w3.org/2000/svg">
<g clip-path="url(#clip0)">
<path d="M0.458282 18.7835C0.458752 18.7831 0.459141 18.7825 0.459686 18.7821L8.62406 10.8229C9.2357 10.2267 10.225 10.2289 10.8338 10.8281C11.4426 11.4273 11.4402 12.3964 10.8286 12.9927L5.34703 18.3364H38.4375C39.3005 18.3364 40 19.0216 40 19.867C40 20.7123 39.3005 21.3976 38.4375 21.3976H5.34711L10.8285 26.7413C11.4402 27.3376 11.4425 28.3067 10.8337 28.9059C10.2249 29.5052 9.23555 29.5072 8.62398 28.9111L0.45961 20.9519C0.459141 20.9514 0.458748 20.9509 0.458202 20.9504C-0.153751 20.3521 -0.151798 19.3799 0.458282 18.7835Z" fill="#815DF5"/>
</g>
<defs>
<clipPath id="clip0">
<rect width="40" height="39.1837" fill="white" transform="matrix(-1 0 0 1 40 0.275146)"/>
</clipPath>
</defs>
</svg>
