<svg width="26" height="26" viewBox="0 0 26 26" fill="none" xmlns="http://www.w3.org/2000/svg">
<g clip-path="url(#clip0)">
<path d="M24.9159 23.1314L18.9659 16.943C20.4957 15.1244 21.334 12.8362 21.334 10.4541C21.334 4.88849 16.8058 0.360352 11.2402 0.360352C5.67462 0.360352 1.14648 4.88849 1.14648 10.4541C1.14648 16.0197 5.67462 20.5478 11.2402 20.5478C13.3296 20.5478 15.3207 19.9176 17.0231 18.7213L23.0183 24.9566C23.2689 25.2168 23.6059 25.3604 23.9671 25.3604C24.309 25.3604 24.6333 25.23 24.8795 24.993C25.4026 24.4897 25.4193 23.6549 24.9159 23.1314ZM11.2402 2.9935C15.3541 2.9935 18.7008 6.34023 18.7008 10.4541C18.7008 14.5679 15.3541 17.9147 11.2402 17.9147C7.12637 17.9147 3.77963 14.5679 3.77963 10.4541C3.77963 6.34023 7.12637 2.9935 11.2402 2.9935Z" fill="#8c8c8c85" />
</g>
<defs>
<clipPath id="clip0">
<rect width="25" height="25" fill="white" transform="translate(0.714844 0.360352)"/>
</clipPath>
</defs>
</svg>
