<svg width="19" height="20" viewBox="0 0 19 20" fill="none" xmlns="http://www.w3.org/2000/svg">
<g clip-path="url(#clip0)">
<path d="M18.5498 7.8612C18.4288 7.46503 18.0968 7.18364 17.7039 7.14618L12.3676 6.63342L10.2574 1.40686C10.1018 1.02382 9.7475 0.775879 9.3538 0.775879C8.9601 0.775879 8.60576 1.02382 8.45016 1.40776L6.34003 6.63342L1.00285 7.14618C0.610703 7.18454 0.279492 7.46503 0.157757 7.8612C0.036021 8.25738 0.148447 8.69191 0.445098 8.96583L4.47873 12.7093L3.28931 18.2539C3.20227 18.6615 3.3518 19.0829 3.67144 19.3274C3.84326 19.4588 4.04427 19.5257 4.24697 19.5257C4.42175 19.5257 4.59511 19.4758 4.7507 19.3773L9.3538 16.466L13.9552 19.3773C14.2919 19.5917 14.7164 19.5721 15.0353 19.3274C15.3551 19.0822 15.5045 18.6606 15.4174 18.2539L14.228 12.7093L18.2617 8.96658C18.5583 8.69191 18.6716 8.25812 18.5498 7.8612Z" fill="#815DF5"/>
</g>
<defs>
<clipPath id="clip0">
<rect width="18.4887" height="19.5652" fill="white" transform="translate(0.109375 0.355957)"/>
</clipPath>
</defs>
</svg>
